<svg width="164" height="62" viewBox="0 0 164 62" fill="none" xmlns="http://www.w3.org/2000/svg">
<path d="M81 39.7361H83.9349V31.6875H93.1398V39.7361H96.0747V21.2639H93.1398V29.0486H83.9349V21.2639H81V39.7361Z" fill="#4A56E2"/>
<path d="M109.85 40C115.453 40 119.722 35.7778 119.722 30.5C119.722 25.2222 115.453 21 109.85 21C104.247 21 99.9785 25.2222 99.9785 30.5C99.9785 35.7778 104.247 40 109.85 40ZM109.85 37.3611C105.982 37.3611 102.913 34.3264 102.913 30.5C102.913 26.6736 105.982 23.6389 109.85 23.6389C113.719 23.6389 116.787 26.6736 116.787 30.5C116.787 34.3264 113.719 37.3611 109.85 37.3611Z" fill="#4A56E2"/>
<path d="M132.296 40C137.899 40 142.168 35.7778 142.168 30.5C142.168 25.2222 137.899 21 132.296 21C126.693 21 122.424 25.2222 122.424 30.5C122.424 35.7778 126.693 40 132.296 40ZM132.296 37.3611C128.428 37.3611 125.359 34.3264 125.359 30.5C125.359 26.6736 128.428 23.6389 132.296 23.6389C136.165 23.6389 139.233 26.6736 139.233 30.5C139.233 34.3264 136.165 37.3611 132.296 37.3611Z" fill="#4A56E2"/>
<path d="M146.071 39.7361H158.077V36.9653H149.006V21.2639H146.071V39.7361Z" fill="#4A56E2"/>
<path d="M161.065 39.7361H164V21.2639H161.065V39.7361Z" fill="#4A56E2"/>
<path d="M0 24.4737C0 15.9071 0 11.6238 1.66717 8.35179C3.13365 5.47365 5.47365 3.13365 8.35179 1.66717C11.6238 0 15.9071 0 24.4737 0H37.5263C46.0929 0 50.3762 0 53.6482 1.66717C56.5264 3.13365 58.8663 5.47365 60.3328 8.35179C62 11.6238 62 15.9071 62 24.4737V37.5263C62 46.0929 62 50.3762 60.3328 53.6482C58.8663 56.5264 56.5264 58.8663 53.6482 60.3328C50.3762 62 46.0929 62 37.5263 62H24.4737C15.9071 62 11.6238 62 8.35179 60.3328C5.47365 58.8663 3.13365 56.5264 1.66717 53.6482C0 50.3762 0 46.0929 0 37.5263V24.4737Z" fill="url(#paint0_linear)"/>
<circle cx="25.2893" cy="36.7105" r="13.8684" fill="#4A56E2"/>
<circle cx="38.3421" cy="23.6579" r="13.8684" fill="#24CCA7"/>
<defs>
<linearGradient id="paint0_linear" x1="-8.97368" y1="70.9737" x2="77.5" y2="-11.4211" gradientUnits="userSpaceOnUse">
<stop stop-color="white"/>
<stop offset="1" stop-color="#E9E2F8"/>
</linearGradient>
</defs>
</svg>
