<svg width="499" height="81" viewBox="0 0 499 81" fill="none" xmlns="http://www.w3.org/2000/svg">
<circle cx="34" cy="26" r="26" fill="#24CCA7"/>
<path d="M30.4404 26.0001L32.8144 28.3731L37.5604 23.6271" stroke="white" stroke-width="1.5" stroke-linecap="round" stroke-linejoin="round"/>
<path fill-rule="evenodd" clip-rule="evenodd" d="M24.75 26.0001C24.75 32.9371 27.063 35.2501 34 35.2501C40.937 35.2501 43.25 32.9371 43.25 26.0001C43.25 19.0631 40.937 16.7501 34 16.7501C27.063 16.7501 24.75 19.0631 24.75 26.0001Z" stroke="white" stroke-width="1.5" stroke-linecap="round" stroke-linejoin="round"/>
<path d="M0.502841 65.3636L4.70739 72.2045V77H6.11648V72.2045L10.321 65.3636H8.70739L5.48011 70.7955H5.34375L2.11648 65.3636H0.502841ZM14.2727 77.1818C16.6364 77.1818 18.2273 75.3864 18.2273 72.6818C18.2273 69.9545 16.6364 68.1591 14.2727 68.1591C11.9091 68.1591 10.3182 69.9545 10.3182 72.6818C10.3182 75.3864 11.9091 77.1818 14.2727 77.1818ZM14.2727 75.9773C12.4773 75.9773 11.6591 74.4318 11.6591 72.6818C11.6591 70.9318 12.4773 69.3636 14.2727 69.3636C16.0682 69.3636 16.8864 70.9318 16.8864 72.6818C16.8864 74.4318 16.0682 75.9773 14.2727 75.9773ZM25.7741 73.4318C25.7741 75.0682 24.5241 75.8182 23.5241 75.8182C22.4105 75.8182 21.6151 75 21.6151 73.7273V68.2727H20.2741V73.8182C20.2741 76.0455 21.456 77.1136 23.0923 77.1136C24.4105 77.1136 25.2741 76.4091 25.6832 75.5227H25.7741V77H27.1151V68.2727H25.7741V73.4318ZM29.571 77H30.9119V71.4773C30.9119 70.2955 31.8438 69.4318 33.1165 69.4318C33.4744 69.4318 33.8438 69.5 33.9347 69.5227V68.1591C33.7812 68.1477 33.429 68.1364 33.2301 68.1364C32.1847 68.1364 31.2756 68.7273 30.9574 69.5909H30.8665V68.2727H29.571V77ZM40.0241 77H41.3651V68.2727H40.0241V77ZM40.706 66.8182C41.2287 66.8182 41.6605 66.4091 41.6605 65.9091C41.6605 65.4091 41.2287 65 40.706 65C40.1832 65 39.7514 65.4091 39.7514 65.9091C39.7514 66.4091 40.1832 66.8182 40.706 66.8182ZM45.1619 71.75C45.1619 70.2273 46.1051 69.3636 47.3892 69.3636C48.6335 69.3636 49.3892 70.1761 49.3892 71.5455V77H50.7301V71.4545C50.7301 69.2273 49.5426 68.1591 47.7756 68.1591C46.4574 68.1591 45.6392 68.75 45.2301 69.6364H45.1165V68.2727H43.821V77H45.1619V71.75ZM57.0668 68.2727H55.1122V67.3864C55.1122 66.5227 55.4759 66.0682 56.3622 66.0682C56.7486 66.0682 56.9759 66.1591 57.1122 66.2045L57.4986 65.0455C57.294 64.9545 56.8849 64.8182 56.2259 64.8182C54.9759 64.8182 53.7713 65.5682 53.7713 67.0682V68.2727H52.3622V69.4091H53.7713V77H55.1122V69.4091H57.0668V68.2727ZM62.1321 77.1818C64.4957 77.1818 66.0866 75.3864 66.0866 72.6818C66.0866 69.9545 64.4957 68.1591 62.1321 68.1591C59.7685 68.1591 58.1776 69.9545 58.1776 72.6818C58.1776 75.3864 59.7685 77.1818 62.1321 77.1818ZM62.1321 75.9773C60.3366 75.9773 59.5185 74.4318 59.5185 72.6818C59.5185 70.9318 60.3366 69.3636 62.1321 69.3636C63.9276 69.3636 64.7457 70.9318 64.7457 72.6818C64.7457 74.4318 63.9276 75.9773 62.1321 75.9773Z" fill="#24CCA7"/>
<circle cx="253" cy="26" r="26" fill="#4A56E2"/>
<path d="M216.495 77H217.904V71.7955H222.95V70.5455H217.904V66.6136H223.472V65.3636H216.495V77ZM225.704 77H227.045V68.2727H225.704V77ZM226.386 66.8182C226.908 66.8182 227.34 66.4091 227.34 65.9091C227.34 65.4091 226.908 65 226.386 65C225.863 65 225.431 65.4091 225.431 65.9091C225.431 66.4091 225.863 66.8182 226.386 66.8182ZM230.842 71.75C230.842 70.2273 231.785 69.3636 233.069 69.3636C234.313 69.3636 235.069 70.1761 235.069 71.5455V77H236.41V71.4545C236.41 69.2273 235.222 68.1591 233.455 68.1591C232.137 68.1591 231.319 68.75 230.91 69.6364H230.796V68.2727H229.501V77H230.842V71.75ZM241.428 77.2045C242.951 77.2045 243.746 76.3864 244.019 75.8182H244.087V77H245.428V71.25C245.428 68.4773 243.315 68.1591 242.201 68.1591C240.883 68.1591 239.383 68.6136 238.701 70.2045L239.974 70.6591C240.269 70.0227 240.968 69.3409 242.246 69.3409C243.479 69.3409 244.087 69.9943 244.087 71.1136V71.1591C244.087 71.8068 243.428 71.75 241.837 71.9545C240.218 72.1648 238.451 72.5227 238.451 74.5227C238.451 76.2273 239.769 77.2045 241.428 77.2045ZM241.633 76C240.565 76 239.792 75.5227 239.792 74.5909C239.792 73.5682 240.724 73.25 241.769 73.1136C242.337 73.0455 243.86 72.8864 244.087 72.6136V73.8409C244.087 74.9318 243.224 76 241.633 76ZM249.217 71.75C249.217 70.2273 250.16 69.3636 251.444 69.3636C252.688 69.3636 253.444 70.1761 253.444 71.5455V77H254.785V71.4545C254.785 69.2273 253.597 68.1591 251.83 68.1591C250.512 68.1591 249.694 68.75 249.285 69.6364H249.171V68.2727H247.876V77H249.217V71.75ZM260.781 77.1818C262.712 77.1818 263.985 76 264.212 74.4545H262.871C262.621 75.4091 261.826 75.9773 260.781 75.9773C259.19 75.9773 258.167 74.6591 258.167 72.6364C258.167 70.6591 259.212 69.3636 260.781 69.3636C261.962 69.3636 262.667 70.0909 262.871 70.8864H264.212C263.985 69.25 262.599 68.1591 260.758 68.1591C258.394 68.1591 256.826 70.0227 256.826 72.6818C256.826 75.2955 258.326 77.1818 260.781 77.1818ZM266.173 77H267.513V68.2727H266.173V77ZM266.854 66.8182C267.377 66.8182 267.809 66.4091 267.809 65.9091C267.809 65.4091 267.377 65 266.854 65C266.332 65 265.9 65.4091 265.9 65.9091C265.9 66.4091 266.332 66.8182 266.854 66.8182ZM272.538 77.2045C274.06 77.2045 274.856 76.3864 275.129 75.8182H275.197V77H276.538V71.25C276.538 68.4773 274.424 68.1591 273.31 68.1591C271.992 68.1591 270.492 68.6136 269.81 70.2045L271.083 70.6591C271.379 70.0227 272.077 69.3409 273.356 69.3409C274.589 69.3409 275.197 69.9943 275.197 71.1136V71.1591C275.197 71.8068 274.538 71.75 272.947 71.9545C271.327 72.1648 269.56 72.5227 269.56 74.5227C269.56 76.2273 270.879 77.2045 272.538 77.2045ZM272.742 76C271.674 76 270.901 75.5227 270.901 74.5909C270.901 73.5682 271.833 73.25 272.879 73.1136C273.447 73.0455 274.969 72.8864 275.197 72.6136V73.8409C275.197 74.9318 274.333 76 272.742 76ZM280.326 65.3636H278.985V77H280.326V65.3636ZM288.964 70.2273C288.543 68.9886 287.6 68.1591 285.873 68.1591C284.032 68.1591 282.668 69.2045 282.668 70.6818C282.668 71.8864 283.384 72.6932 284.987 73.0682L286.441 73.4091C287.322 73.6136 287.737 74.0341 287.737 74.6364C287.737 75.3864 286.941 76 285.691 76C284.594 76 283.907 75.5284 283.668 74.5909L282.396 74.9091C282.708 76.392 283.93 77.1818 285.714 77.1818C287.742 77.1818 289.123 76.0739 289.123 74.5682C289.123 73.3523 288.362 72.5852 286.805 72.2045L285.509 71.8864C284.475 71.6307 284.009 71.2841 284.009 70.6136C284.009 69.8636 284.805 69.3182 285.873 69.3182C287.043 69.3182 287.526 69.9659 287.759 70.5682L288.964 70.2273Z" fill="#4A56E2"/>
<path d="M246.856 35H259.299V31.983H251.97V31.8636L254.518 29.3665C258.106 26.0938 259.069 24.4574 259.069 22.4716C259.069 19.446 256.598 17.3068 252.856 17.3068C249.191 17.3068 246.677 19.4972 246.686 22.9233H250.189C250.18 21.2528 251.237 20.2301 252.831 20.2301C254.365 20.2301 255.507 21.1847 255.507 22.7188C255.507 24.108 254.654 25.0625 253.069 26.5881L246.856 32.3409V35Z" fill="white"/>
<circle cx="472" cy="26" r="26" fill="#C4C4C4"/>
<path d="M445.808 77H447.217V72.4545H449.762C449.864 72.4545 449.961 72.4545 450.058 72.4489L452.512 77H454.148L451.518 72.1932C453.001 71.6875 453.694 70.4773 453.694 68.9318C453.694 66.875 452.467 65.3636 449.739 65.3636H445.808V77ZM447.217 71.1818V66.6136H449.694C451.58 66.6136 452.308 67.5341 452.308 68.9318C452.308 70.3295 451.58 71.1818 449.717 71.1818H447.217ZM459.425 77.1818C461.198 77.1818 462.494 76.2955 462.903 74.9773L461.607 74.6136C461.266 75.5227 460.477 75.9773 459.425 75.9773C457.852 75.9773 456.766 74.9602 456.704 73.0909H463.039V72.5227C463.039 69.2727 461.107 68.1591 459.289 68.1591C456.925 68.1591 455.357 70.0227 455.357 72.7045C455.357 75.3864 456.903 77.1818 459.425 77.1818ZM456.704 71.9318C456.795 70.5739 457.755 69.3636 459.289 69.3636C460.744 69.3636 461.675 70.4545 461.675 71.9318H456.704ZM471.95 68.2727H470.495L468.086 75.2273H467.995L465.586 68.2727H464.131L467.359 77H468.722L471.95 68.2727ZM473.719 77H475.06V68.2727H473.719V77ZM474.401 66.8182C474.924 66.8182 475.356 66.4091 475.356 65.9091C475.356 65.4091 474.924 65 474.401 65C473.879 65 473.447 65.4091 473.447 65.9091C473.447 66.4091 473.879 66.8182 474.401 66.8182ZM481.175 77.1818C482.948 77.1818 484.244 76.2955 484.653 74.9773L483.357 74.6136C483.016 75.5227 482.227 75.9773 481.175 75.9773C479.602 75.9773 478.516 74.9602 478.454 73.0909H484.789V72.5227C484.789 69.2727 482.857 68.1591 481.039 68.1591C478.675 68.1591 477.107 70.0227 477.107 72.7045C477.107 75.3864 478.653 77.1818 481.175 77.1818ZM478.454 71.9318C478.545 70.5739 479.505 69.3636 481.039 69.3636C482.494 69.3636 483.425 70.4545 483.425 71.9318H478.454ZM488.806 77H490.124L492.033 70.2955H492.17L494.079 77H495.397L498.056 68.2727H496.647L494.761 74.9318H494.67L492.829 68.2727H491.397L489.533 74.9545H489.442L487.556 68.2727H486.147L488.806 77Z" fill="#C4C4C4"/>
<path d="M471.956 35.2386C475.877 35.2386 478.681 33.0824 478.672 30.0994C478.681 27.9261 477.3 26.375 474.735 26.0511V25.9148C476.686 25.5653 478.033 24.1847 478.025 22.2244C478.033 19.4716 475.621 17.3068 472.007 17.3068C468.428 17.3068 465.735 19.4034 465.684 22.4205H469.221C469.263 21.0909 470.482 20.2301 471.99 20.2301C473.482 20.2301 474.479 21.1335 474.471 22.446C474.479 23.8182 473.311 24.7472 471.632 24.7472H470.005V27.4574H471.632C473.61 27.4574 474.846 28.446 474.837 29.8523C474.846 31.2415 473.652 32.196 471.965 32.196C470.337 32.196 469.118 31.3438 469.05 30.0653H465.334C465.394 33.1165 468.121 35.2386 471.956 35.2386Z" fill="white"/>
<circle cx="98.5" cy="26.5" r="6.5" fill="#C4C4C4"/>
<circle cx="143.5" cy="26.5" r="6.5" fill="#C4C4C4"/>
<circle cx="188.5" cy="26.5" r="6.5" fill="#C4C4C4"/>
<circle cx="317.5" cy="26.5" r="6.5" fill="#C4C4C4"/>
<circle cx="362.5" cy="26.5" r="6.5" fill="#C4C4C4"/>
<circle cx="407.5" cy="26.5" r="6.5" fill="#C4C4C4"/>
</svg>
