<svg fill="none" xmlns="http://www.w3.org/2000/svg" viewBox="0 0 138 102"><path d="M38.227 16c0-8.837 7.11-16 15.883-16h29.78c8.773 0 15.884 7.163 15.884 16v30c0 8.837-7.111 16-15.883 16H54.11c-8.772 0-15.883-7.163-15.883-16V16Z" fill="#fff"/><ellipse cx="62.914" cy="37.71" rx="13.767" ry="13.868" fill="#3D4C96"/><ellipse cx="75.401" cy="24.868" rx="13.767" ry="13.868" fill="#498EBE"/><path d="M10.02 86c.912 0 1.742.22 2.487.662a4.762 4.762 0 0 1 1.803 1.757c.457.73.685 1.56.685 2.488a4.87 4.87 0 0 1-.707 2.58 5.262 5.262 0 0 1-1.918 1.825 5.115 5.115 0 0 1-2.602.685H4.404v5.98H1.94V86h8.08Zm-.389 7.623c.502 0 .967-.121 1.393-.365.426-.258.76-.593 1.004-1.004.259-.41.388-.86.388-1.347 0-.471-.13-.897-.388-1.278a2.652 2.652 0 0 0-1.004-.913 2.902 2.902 0 0 0-1.393-.342H4.404v5.25h5.227ZM23.246 101.977h-2.351V86h2.35v15.977ZM38.26 86c.913 0 1.742.22 2.488.662a4.762 4.762 0 0 1 1.803 1.757c.457.73.685 1.56.685 2.488a4.87 4.87 0 0 1-.708 2.58 5.262 5.262 0 0 1-1.917 1.825 5.115 5.115 0 0 1-2.602.685h-5.364v5.98H30.18V86h8.08Zm-.388 7.623c.502 0 .967-.121 1.392-.365.427-.258.761-.593 1.005-1.004.259-.41.388-.86.388-1.347 0-.471-.13-.897-.388-1.278a2.652 2.652 0 0 0-1.005-.913 2.902 2.902 0 0 0-1.392-.342h-5.227v5.25h5.227ZM48.748 86h11.846v2.374h-9.381v4.222h8.125v2.374h-8.125v4.633h9.38v2.374H48.748V86ZM80.065 90.999c0 1.05-.327 2.008-.981 2.876a5.407 5.407 0 0 1-2.488 1.825l4.268 6.3-3.035-.023-3.995-5.934h-4.656v5.934h-2.465V86h8.217c.898 0 1.734.213 2.51.64a5.246 5.246 0 0 1 1.895 1.757c.487.745.73 1.612.73 2.602Zm-5.706-2.625h-5.181v5.295h5.478c.532 0 1.012-.122 1.438-.365.426-.259.76-.594 1.004-1.004a2.44 2.44 0 0 0 .388-1.324c0-.502-.144-.951-.434-1.347-.289-.395-.669-.7-1.14-.913a3.517 3.517 0 0 0-1.553-.342Z" fill="#fff"/><path d="M94.698 86c.913 0 1.742.22 2.487.662a4.762 4.762 0 0 1 1.804 1.757c.456.73.684 1.56.684 2.488a4.87 4.87 0 0 1-.707 2.58 5.263 5.263 0 0 1-1.917 1.825 5.115 5.115 0 0 1-2.603.685h-5.363v5.98h-2.465V86h8.08Zm-.388 7.623c.502 0 .966-.121 1.392-.365.426-.258.76-.593 1.004-1.004.259-.41.388-.86.388-1.347 0-.471-.13-.897-.388-1.278a2.651 2.651 0 0 0-1.004-.913 2.902 2.902 0 0 0-1.392-.342h-5.227v5.25h5.227ZM115.994 101.977l-1.712-3.834h-8.194l-1.712 3.834h-2.556L108.895 86h2.717l7.052 15.977h-2.67Zm-7.053-10.317-1.803 4.109h6.094l-1.849-4.2a39.895 39.895 0 0 1-1.209-3.013 33.1 33.1 0 0 1-.617 1.62 26.66 26.66 0 0 1-.616 1.484ZM136.061 86l-6.87 9.427v6.55h-2.465v-6.46L119.399 86h3.218l5.387 7.235 5.09-7.235h2.967Z" fill="#92C8EE"/></svg>