<?xml version="1.0" standalone="no"?>
<!DOCTYPE svg PUBLIC "-//W3C//DTD SVG 20010904//EN"
 "http://www.w3.org/TR/2001/REC-SVG-20010904/DTD/svg10.dtd">
<svg version="1.0" xmlns="http://www.w3.org/2000/svg"
 width="700.000000pt" height="700.000000pt" viewBox="0 0 700.000000 700.000000"
 preserveAspectRatio="xMidYMid meet">
<metadata>
Created by potrace 1.14, written by Peter Selinger 2001-2017
</metadata>
<g transform="translate(0.000000,700.000000) scale(0.100000,-0.100000)"
fill="#000000" stroke="none">
<path d="M4258 6455 c-2 -2 -25 -6 -53 -9 -99 -12 -129 -17 -229 -41 -457
-109 -867 -379 -1147 -755 -97 -130 -169 -254 -233 -400 -86 -195 -144 -418
-162 -615 -3 -33 -7 -61 -8 -63 -2 -1 -25 -4 -52 -7 -41 -5 -154 -24 -229 -39
-126 -26 -289 -83 -440 -156 -601 -290 -1033 -882 -1120 -1535 -4 -27 -9 -63
-11 -80 -7 -45 -7 -355 -1 -390 3 -16 8 -52 12 -80 3 -27 7 -59 9 -70 29 -141
42 -190 71 -280 51 -154 103 -267 188 -410 248 -414 640 -727 1097 -879 237
-78 382 -101 645 -101 203 0 275 7 429 39 388 82 733 271 1016 555 211 212
354 433 461 710 26 68 65 193 74 239 2 9 10 51 18 92 14 68 30 174 31 209 1 8
10 15 21 17 11 1 40 5 65 9 353 47 731 209 990 424 312 258 535 580 655 943
24 75 46 146 49 159 28 143 37 192 43 244 10 76 10 424 0 490 -49 343 -153
622 -329 885 -327 488 -838 807 -1413 884 -86 12 -437 20 -447 11z"/>
</g>
</svg>
